<?xml version="1.0" encoding="UTF-8"?><svg id="Layer_1" xmlns="http://www.w3.org/2000/svg" viewBox="0 0 32 32"><g id="P8SKG9.tif"><path d="M20.12,16.16c-1.09.23-1.91,1.21-1.91,2.34l-.04,9.83c0,.39-.45.72-.83.72h-5.01c-.35,0-.8-.34-.8-.72V11.66c0-.47.55-.75.93-.75h4.42c.53.01.88.56.85,1.03,0,.16,0,.3.02.43.98-1.01,2.19-1.66,3.56-1.83.87-.11,1.72-.11,2.59,0,2.15.26,3.98,1.64,4.83,3.62.33.77.53,1.56.53,2.43v11.65c0,.41-.45.82-.83.82h-4.45c-.49,0-.91-.42-.91-.92v-9.54c0-.5-.07-1.02-.36-1.43-.57-.81-1.59-1.22-2.6-1ZM19.59,15.4c1.43-.51,3.03.01,3.88,1.23.4.57.47,1.21.52,1.89l.04,9.64h4.38s0-11.58,0-11.58c-.07-1.27-.47-2.43-1.29-3.38s-2.01-1.65-3.33-1.78c-.76-.08-1.5-.09-2.25,0-1.36.17-2.56.87-3.37,1.95l-1.26,1.26v-2.83s-4.42,0-4.42,0v16.36s4.85,0,4.85,0v-9.51c.04-1.46.86-2.75,2.26-3.25Z" fill="#fff"/><path d="M8.05,29.05h-3.56c-.76,0-1.33-.64-1.33-1.39v-15.44c0-.69.54-1.3,1.22-1.3h3.76c.58,0,1.22.57,1.22,1.2v15.75c0,.65-.69,1.19-1.3,1.19ZM8.07,28.16c.26-.05.4-.19.41-.45v-15.43c-.03-.28-.2-.45-.46-.48h-3.52c-.24,0-.4.18-.43.43v15.43c0,.3.19.5.48.5h3.52Z" fill="#fff"/><path d="M9.79,6.91c-.19,1.41-1.18,2.6-2.52,2.99-1.25.36-2.52.04-3.44-.85-1-.98-1.37-2.4-.88-3.76.43-1.19,1.51-2.12,2.85-2.31,1.22-.17,2.37.27,3.17,1.2.65.76.97,1.68.83,2.73ZM8.9,6.72c.13-1.58-1.1-2.9-2.66-2.88-1.65.03-2.84,1.45-2.58,3.09.19,1.21,1.17,2.06,2.39,2.19,1.47.15,2.74-.94,2.86-2.4Z" fill="#fff"/></g></svg>